<?xml version="1.0" encoding="UTF-8" standalone="no"?>
<!DOCTYPE svg PUBLIC "-//W3C//DTD SVG 1.1//EN" "http://www.w3.org/Graphics/SVG/1.1/DTD/svg11.dtd">
<svg width="100%" height="100%" viewBox="0 0 136 135" version="1.1" xmlns="http://www.w3.org/2000/svg" xmlns:xlink="http://www.w3.org/1999/xlink" xml:space="preserve" xmlns:serif="http://www.serif.com/" style="fill-rule:evenodd;clip-rule:evenodd;stroke-linejoin:round;stroke-miterlimit:2;">
    <g transform="matrix(0.1,0,0,-0.1,0,135)">
        <path d="M506,1334C271,1277 77,1082 15,840C-11,739 -2,548 32,452C70,346 115,276 195,195C276,115 347,70 452,33C559,-5 743,-11 855,19C978,53 1063,103 1156,195C1224,263 1245,292 1283,371C1340,490 1354,550 1354,675C1354,800 1340,860 1283,979C1245,1058 1224,1087 1156,1155C1018,1293 874,1351 675,1349C615,1349 538,1342 506,1334ZM536,975C563,967 598,950 613,938L641,915L605,868L570,821L537,840C517,853 487,860 457,860C417,860 403,855 380,832C333,785 317,682 341,585C363,500 436,469 525,509C551,521 574,529 575,528C651,419 651,429 575,387C542,369 519,365 445,365C364,365 350,368 302,394C201,450 154,550 162,695C173,910 339,1034 536,975ZM828,937C833,919 859,813 885,702C912,591 935,502 937,504C939,506 967,610 999,734C1031,859 1060,963 1062,966C1065,969 1103,970 1147,968L1226,965L1125,648C1068,474 1011,311 996,287C951,209 879,161 777,140C745,134 717,130 715,132C713,133 709,160 705,191L698,246L757,263C865,293 866,273 755,627C702,796 657,943 654,953C649,968 657,970 734,970L819,970L828,937Z" style="fill-rule:nonzero;"/>
    </g>
</svg>
