<svg id="Bold" enable-background="new 0 0 24 24" height="512" viewBox="0 0 24 24" width="512" xmlns="http://www.w3.org/2000/svg"><path d="m.75 9h9.5c.414 0 .75-.336.75-.75s-.336-.75-.75-.75h-9.5c-.414 0-.75.336-.75.75s.336.75.75.75z"/><path d="m.75 12h9.5c.414 0 .75-.336.75-.75s-.336-.75-.75-.75h-9.5c-.414 0-.75.336-.75.75s.336.75.75.75z"/><path d="m.75 15h9.5c.414 0 .75-.336.75-.75s-.336-.75-.75-.75h-9.5c-.414 0-.75.336-.75.75s.336.75.75.75z"/><path d="m.75 18h9.5c.414 0 .75-.336.75-.75s-.336-.75-.75-.75h-9.5c-.414 0-.75.336-.75.75s.336.75.75.75z"/><path d="m.75 21h9.5c.414 0 .75-.336.75-.75s-.336-.75-.75-.75h-9.5c-.414 0-.75.336-.75.75s.336.75.75.75z"/><path d="m22.25 7.5h-7.5c-.965 0-1.75.785-1.75 1.75v4c0 .965.785 1.75 1.75 1.75h7.5c.965 0 1.75-.785 1.75-1.75v-4c0-.965-.785-1.75-1.75-1.75z"/><path d="m22.25 16.5h-7.5c-.965 0-1.75.785-1.75 1.75v4c0 .965.785 1.75 1.75 1.75h7.5c.965 0 1.75-.785 1.75-1.75v-4c0-.965-.785-1.75-1.75-1.75z"/><path d="m.75 24h9.5c.414 0 .75-.336.75-.75s-.336-.75-.75-.75h-9.5c-.414 0-.75.336-.75.75s.336.75.75.75z"/><path d="m22.25 0h-12.5c-.965 0-1.75.785-1.75 1.75v2.5c0 .965.785 1.75 1.75 1.75h12.5c.965 0 1.75-.785 1.75-1.75v-2.5c0-.965-.785-1.75-1.75-1.75z"/><circle cx="3" cy="3" r="3"/></svg>